<svg width="1226" height="2065" viewBox="0 0 1226 2065" fill="none" xmlns="http://www.w3.org/2000/svg">
<path d="M647.757 1887.34C647.757 1887.34 642.932 1920.86 612.752 1921.03L468.551 1920.86C468.551 1920.86 503.972 1920.91 503.972 1885.89V1073.09L576.932 1146L647.757 1075.5V1887.34ZM469.145 214.521H611.506C647.757 214.521 647.757 252.171 647.757 252.171V931.592L576.764 1002.09L503.972 929L504.209 249.84C503.972 214.521 469.145 214.521 469.145 214.521ZM1082.01 1754.47V1752.42V1137.73C1082.01 1065.17 1153.03 1065 1153.03 1065C1153.03 1065 1082.01 1065.17 1082.01 996.809V380.768C1082.01 311.821 1154.93 306.984 1154.93 306.984H1011.17C1011.17 306.984 1009.72 306.984 1007.21 307.183C997.96 307.92 974.396 311.377 956.932 327.595C945.174 338.514 936.181 355.217 936.181 380.768V497.216C936.181 532.403 936.181 536.5 936.181 606.5C936.181 636 928.932 650.762 918.932 661C908.932 671.238 792.76 787 792.76 787V141.171C792.76 141.171 792.76 71 720.081 71.408L430.739 71.1359L286.288 71C286.288 71 360.036 71.7576 359.739 141.987V785.092C359.739 785.092 260.764 686.092 236.764 662.092C233.018 658.346 215.547 646.5 215.547 607.5C215.547 525.5 216.574 523.413 215.547 495.409V380.768C215.547 315.053 155.918 307.866 142.876 307.08C141.275 306.984 140.376 306.984 140.376 306.984L0 307V306.984C0 306.984 71.9085 306.984 71.9085 380.768V996.809C71.9085 1065.17 0.433594 1066 0.433594 1066C0.433594 1066 71.9085 1065.17 71.9085 1137.73V1754.42C71.9085 1823.42 0.932785 1823.42 0.932785 1823.42H141.503C141.503 1823.42 173.572 1823.42 195.5 1803.77C197.072 1802.36 198.592 1800.85 200.045 1799.23C209.116 1789.12 215.547 1774.79 215.547 1754.47V1752.3V785L359.739 929V1992.03C360.333 2064.77 289.629 2065 289.629 2065H720.081C747.886 2065 765.215 2055.86 776 2044.07C792.977 2025.51 793.742 2000.38 793.643 1993.97C793.627 1992.98 793.591 1992.44 793.591 1992.44L792.76 929L936.181 785.592V1754.47C938.432 1823.42 1010.17 1823.42 1010.17 1823.42H1154.1C1145.97 1823.3 1082.01 1819.5 1082.01 1754.47Z" fill="#C09E6B"/>
<path d="M718.757 1816.34C718.757 1816.34 713.932 1849.86 683.752 1850.03L539.551 1849.86C539.551 1849.86 574.972 1849.91 574.972 1814.89V1002.09L647.932 1075L718.757 1004.5V1816.34ZM540.145 143.521H682.506C718.757 143.521 718.757 181.171 718.757 181.171V860.592L647.764 931.092L574.972 858L575.209 178.84C574.972 143.521 540.145 143.521 540.145 143.521ZM1153.01 1683.47V1066.73C1153.01 994.173 1225.93 994.173 1225.93 994.173C1225.93 994.173 1153.01 994.173 1153.01 925.809V309.768C1153.01 240.821 1225.93 235.984 1225.93 235.984H1082.17C1082.17 235.984 1050.61 235.984 1028.43 256.136C1026.99 257.447 1025.59 258.844 1024.23 260.331C1014.72 270.801 1007.73 285.773 1007.21 307.183C1007.19 308.035 1007.18 308.896 1007.18 309.768V426.216C1007.18 461.403 1007.18 465.5 1007.18 535.5C1007.18 565 999.932 579.762 989.932 590C979.932 600.238 863.76 716 863.76 716V70.1715C863.76 70.1715 863.76 0 791.081 0.407974L357.288 0C357.288 0 431.036 0.757652 430.739 70.9874V71.1359V714.092C430.739 714.092 331.764 615.092 307.764 591.092C304.018 587.346 286.547 575.5 286.547 536.5C286.547 454.5 287.574 452.413 286.547 424.409V309.768C286.547 235.984 211.376 235.984 211.376 235.984H71C81.182 236.474 141.301 242.165 142.876 307.08C142.898 307.965 142.908 308.861 142.908 309.768V925.809C142.908 994.173 71.9085 995 71.9085 995C71.9085 995 142.908 994.173 142.908 1066.73V1683.42C142.908 1752.42 71.9085 1752.42 71.9085 1752.42H212.503C212.503 1752.42 213.608 1752.42 215.547 1752.3C224.346 1751.73 250.323 1748.57 268.288 1731.1C268.659 1730.74 269.027 1730.37 269.39 1730C279.324 1719.82 286.547 1705.01 286.547 1683.47V714L430.739 858V1921.03C431.333 1993.77 359.737 1994 359.737 1994H791.081C791.945 1994 792.799 1993.99 793.643 1993.97C816.718 1993.5 832.318 1986.57 842.856 1977.16C844.528 1975.67 846.073 1974.12 847.5 1972.52C866.571 1951.12 864.591 1921.44 864.591 1921.44L863.76 858L1007.18 714.592V1683.47C1009.43 1752.42 1081.17 1752.42 1081.17 1752.42H1082.01H1225.1C1216.97 1752.3 1153.01 1748.5 1153.01 1683.47Z" fill="white"/>
<path d="M956.932 327.595C974.396 311.377 997.96 307.92 1007.21 307.183C1007.73 285.773 1014.72 270.801 1024.23 260.331L956.932 327.595Z" fill="#C09E6B"/>
<path d="M1082.01 1752.42V1754.47C1082.01 1819.5 1145.97 1823.3 1154.1 1823.42L1225.1 1752.42H1082.01Z" fill="#C09E6B"/>
<path d="M359.737 1994C359.05 2064.77 289.629 2065 289.629 2065L359.737 1994Z" fill="#C09E6B"/>
<path d="M71.9085 1754.42V1752.42L0.932785 1823.42C0.932785 1823.42 71.9085 1823.42 71.9085 1754.42Z" fill="#C09E6B"/>
<path d="M71.9085 996.809V995L0.433594 1066C0.433594 1066 71.9085 1065.17 71.9085 996.809Z" fill="#C09E6B"/>
<path d="M286.288 71L430.739 71.1359V70.9874C431.036 0.757652 357.288 0 357.288 0L286.288 71Z" fill="#C09E6B"/>
<path d="M215.547 1752.3V1754.47C215.547 1774.79 209.116 1789.12 200.045 1799.23L268.288 1731.1C250.323 1748.57 224.346 1751.73 215.547 1752.3Z" fill="#C09E6B"/>
<path d="M793.643 1993.97C793.742 2000.38 792.977 2025.51 776 2044.07L842.856 1977.16C832.318 1986.57 816.718 1993.5 793.643 1993.97Z" fill="#C09E6B"/>
<path d="M140.376 306.984C140.376 306.984 141.275 306.984 142.876 307.08C141.301 242.165 81.182 236.474 71 235.984L0 307L140.376 306.984Z" fill="#C09E6B"/>
</svg>
