<?xml version="1.0" encoding="UTF-8" standalone="no"?>
<svg 
    role="img" 
    xmlns="http://www.w3.org/2000/svg" 
    width="1000mm"
    height="1000mm"
    viewBox="0 0 1000 1000"
    style="max-width:1.6em; height: auto;">
    
    <path 
        id="path" 
        style="opacity:1;vector-effect:none;fill:#423185;fill-opacity:1;"
        d="M 500 0C 224 0 0 224 0 500C 0 776 224 1000 500 1000C 776 1000 1000 776 1000 500C 1000 224 776 0 500 0C 500 0 500 0 500 0 M 531 346C 511 346 493 357 477 378C 454 409 438 450 428 503C 428 503 427 509 427 509C 427 509 434 508 434 508C 476 500 507 488 526 470C 553 446 566 419 566 389C 566 376 563 365 556 358C 550 350 541 346 531 346C 531 346 531 346 531 346M 559 323C 589 323 612 330 629 343C 645 357 653 373 653 394C 653 411 646 429 633 446C 620 464 598 479 568 492C 537 506 490 518 428 528C 428 528 424 529 424 529C 424 529 423 554 423 554C 423 580 429 600 443 614C 456 628 474 635 496 635C 515 635 533 631 550 623C 567 615 588 599 611 576C 615 579 623 585 628 589C 602 616 575 636 550 647C 524 660 495 666 464 666C 421 666 387 654 362 630C 338 607 325 575 325 535C 325 499 336 463 356 430C 377 397 406 371 442 352C 478 332 517 323 559 323C 559 323 559 323 559 323M 379 234C 235 301 151 446 186 584C 222 723 365 810 523 798C 297 835 97 760 60 617C 37 526 86 427 180 347C 180 347 108 304 108 304C 108 304 378 235 378 235C 375 235 372 237 369 239C 372 237 376 236 379 234C 379 234 379 234 379 234M 597 192C 773 192 916 263 946 382C 969 473 921 572 826 652C 826 652 898 694 898 694C 898 694 628 764 628 764C 631 763 634 762 637 760C 634 761 631 763 627 764C 771 698 855 553 820 414C 784 275 641 189 483 201C 522 194 560 191 597 192C 597 192 597 192 597 192"
        transform="">
    </path>    
</svg>