<svg width="459" height="689" viewBox="0 0 459 689" fill="none" xmlns="http://www.w3.org/2000/svg">
<path d="M229.284 344.63C229.284 281.389 280.554 229.858 344.056 229.858C407.298 229.858 458.828 281.129 458.828 344.63C458.828 407.872 407.558 459.403 344.056 459.403C280.814 459.403 229.284 407.872 229.284 344.63Z" fill="#1ABCFE"/>
<path d="M0 573.914C0 510.673 51.27 459.142 114.772 459.142H229.544V573.914C229.544 637.156 178.274 688.686 114.772 688.686C51.27 688.686 0 637.416 0 573.914Z" fill="#0ACF83"/>
<path d="M229.284 229.858H344.056C407.298 229.858 458.828 178.588 458.828 115.086C458.828 51.8447 407.558 0.314453 344.056 0.314453H229.284V229.858Z" fill="#FF7262"/>
<path d="M0 115.347C0 178.588 51.27 230.119 114.772 230.119H229.544V0.574707H114.772C51.27 0.574707 0 51.8447 0 115.347Z" fill="#F24E1E"/>
<path d="M0 344.63C0 407.872 51.27 459.403 114.772 459.403H229.544V229.858H114.772C51.27 229.858 0 281.389 0 344.63Z" fill="#A259FF"/>
</svg>
