<svg width="1278" height="1278" viewBox="0 0 1278 1278" fill="none" xmlns="http://www.w3.org/2000/svg">
<path d="M0 195C0 87.3045 87.3045 0 195 0H1083C1190.7 0 1278 87.3045 1278 195V1083C1278 1190.7 1190.7 1278 1083 1278H195C87.3045 1278 0 1190.7 0 1083V195Z" fill="white"/>
<path d="M908.645 776.606L941.603 693.263H1036.76L991.604 566.836L1048.09 424L1209.86 853.538H1090.56L1062.91 776.606H908.645Z" fill="#3D3D3D"/>
<path d="M806.867 853.543L980.054 424.004L865.237 424.005L746.767 701.582L662.523 424.005H574.269L483.814 701.582L420.022 575.096L362.293 752.948L420.905 853.543H533.899L615.64 604.616L693.575 853.543H806.867Z" fill="#5A0FC8"/>
<path d="M177.988 706.085H248.709C270.132 706.085 289.208 703.694 305.937 698.912L375.343 485.085C371.448 478.912 367.002 473.075 362.003 467.575C335.758 438.525 297.359 424 246.805 424H69V853.538H177.988V706.085ZM271.598 522.82C281.849 533.137 286.975 546.944 286.975 564.241C286.975 581.67 282.467 595.494 273.451 605.712C263.568 617.065 245.37 622.741 218.858 622.741H177.988V507.342H219.158C243.867 507.342 261.347 512.501 271.598 522.82Z" fill="#3D3D3D"/>
</svg>
